<?xml version="1.0" encoding="UTF-8"?>
<svg xmlns="http://www.w3.org/2000/svg" viewBox="0 0 598.27557 844.45001">
  <defs>
    <style>
      .cls-1 {
        isolation: isolate;
      }

      .cls-2, .cls-3, .cls-4, .cls-5 {
        stroke-miterlimit: 10;
      }

      .cls-2, .cls-3, .cls-4, .cls-5, .cls-6 {
        stroke: #abca34;
        stroke-width: 3px;
      }

      .cls-2, .cls-4, .cls-5, .cls-6 {
        fill: none;
      }

      .cls-3 {
        fill: #878787;
      }

      .cls-3, .cls-5 {
        opacity: .45;
      }

      .cls-4 {
        mix-blend-mode: screen;
      }

      .cls-6 {
        stroke-linecap: round;
        stroke-linejoin: round;
      }
    </style>
  </defs>
  <g class="cls-1">
    <g id="Capa_1" data-name="Capa 1">
      <g>
        <g>
          <g>
            <g>
              <path class="cls-2" d="M390.87,112.20996h-138.07001c-3.83002,0-6.95001,3.12-6.95001,6.92999v37.85004c0,3.81,3.12,6.94,6.95001,6.94h138.07001c3.82001,0,6.95001-3.13,6.95001-6.94v-37.85004c0-3.81-3.13-6.92999-6.95001-6.92999ZM397.82001,156.98999v-37.85004c0-3.81-3.13-6.92999-6.95001-6.92999h-138.07001c-3.83002,0-6.95001,3.12-6.95001,6.92999v37.85004c0,3.81,3.12,6.94,6.95001,6.94h138.07001c3.82001,0,6.95001-3.13,6.95001-6.94ZM390.87,112.20996h-138.07001c-3.83002,0-6.95001,3.12-6.95001,6.92999v37.85004c0,3.81,3.12,6.94,6.95001,6.94h138.07001c3.82001,0,6.95001-3.13,6.95001-6.94v-37.85004c0-3.81-3.13-6.92999-6.95001-6.92999ZM352.19,311.93h-60.72003c-8.67999,0-15.79999,7.12-15.79999,15.81v135.98999c0,8.69,7.12,15.79999,15.79999,15.79999h18.71002c.01001-.54999.04999-1.09998.08002-1.64996.32001-6.81.70001-13.03003,1.04999-18.51001.07001-1.09003.13-2.14001.20001-3.17999-1.69-1.02002-3.21002-2.28003-4.51001-3.73999-.19-.21002-.37-.43005-.57001-.65002-.39996-.48999-.77002-1.01001-1.13-1.53003-.13-.19-.26001-.38-.39001-.57996-.07996-.11005-.14996-.23999-.22998-.36005-.13-.23999-.26001-.46997-.39001-.70996-.29999-.57001-.59998-1.15002-.83997-1.75-.21002-.47003-.40002-.97003-.57001-1.48999-.10999-.31-.21002-.63-.27002-.96002-.15997-.54999-.28998-1.12-.40997-1.70001-.04999-.31-.09003-.60999-.14001-.91998v-.03998c-.04999-.38-.09998-.77002-.12-1.18005-.03998-.47998-.06-.96997-.06-1.46997,0-.39001.02002-.77002.02997-1.14001.07001-1.03998.20001-2.03998.41003-3.02997,1.90997-9.01001,9.91998-15.77002,19.51001-15.77002,4.32996,0,8.34998,1.38,11.60999,3.72998,4.76001,3.39001,7.96002,8.85004,8.31,15.07001.02002.37.03998.75.03998,1.14001,0,.34003-.01996.67999-.03998,1.02002-.04999,1.03998-.17999,2.06-.37,3.02997-.06.32001-.15002.63-.22998.94-.08002.32001-.17004.66003-.27002.97003s-.20001.59998-.31.88995c-.10999.31-.22998.62-.35999.91003-.11005.31-.24005.59998-.40002.89001-.13.28998-.27997.58997-.44.85999-.13.22998-.26001.46997-.39001.70001-.83997,1.41998-1.85999,2.73999-3.04999,3.89996-.14001.15002-.28998.28003-.42999.42999-.84998.81-1.78998,1.54004-2.78998,2.17999-.16003.13-.36005.25-.54004.34003-.07996.07001-.15997.12-.26001.15002-.33997.20996-.69.40997-1.04999.57996-.39996.21002-.82996.41003-1.26001.60004-.06995.01996-.13.04999-.19995.07996-.47003.18005-.95001.36005-1.44.52002-.07001.96002-.13,1.95001-.20001,2.97003-.32001,5.01996-.64001,10.67999-.94,16.81-.03003.54999-.03998,1.09998-.08002,1.64996h25.45001c8.69,0,15.81-7.10999,15.81-15.79999v-135.98999c0-8.69-7.12-15.81-15.81-15.81ZM301.53998,425.51996c-.09998.17004-.19995.31-.27997.47003-.04999.08002-.09003.16998-.13.25-.06.10999-.13.21002-.16998.32001-.01001.01996-.03003.03998-.04004.06-.01996.04999-.04999.10999-.07996.15997-.04004.06-.08002.12-.11005.17999l-.01001.01001c-.03998.07001-.06995.13-.09998.19-.08002.14001-.15002.28003-.21997.42999-.08002.14001-.14001.29004-.21002.42999-.02002.03003-.03003.07001-.03998.10004-.04004.07001-.08002.14996-.10004.21997-.02997.07001-.04999.12-.08002.17999-.06995.14001-.12994.30005-.18994.45001-.07001.15002-.13.31-.19.46002-.01001.01001-.01001.02997-.02002.04999-.01001.01001-.01001.03003-.01001.04999-.02002.03003-.02997.07001-.03998.10004-.01001.00995-.02002.01996-.02002.02997-.04999.12-.09998.23999-.13.37-.02002.04999-.03998.10999-.04999.16003l-.01001.01001v.00995l-.01001.01001c-.04999.13-.08997.25-.13.37-.04999.14001-.08997.27002-.13.40002-.00995.02997-.00995.06-.01996.08997,0,.01001-.01001.03003-.01001.05005-.01001.01996-.01001.03998-.02002.06-.01001.03998-.02002.07996-.03998.12-.02002.08997-.04999.19-.07001.27997-.06.20001-.12.40002-.16998.61005-.01001.03998-.02002.07996-.03003.12-.01001.03998-.02002.08997-.02997.13-.01001.06-.03003.10999-.04004.16998-.01996.09998-.04999.20996-.07001.31-.03998.19-.07996.39001-.12.58997-.01996.10004-.03998.21002-.04999.31-.02997.15002-.04999.30005-.07001.45001-.02997.17999-.06.35999-.08002.54004-.00995.06995-.01996.13995-.02997.20996-.02002.15002-.03003.29999-.03998.45001-.01001.01001-.01001.03998-.01001.08002-.01001.07996-.02002.15997-.03003.23999-.01001.06-.01996.12-.01996.19v.07001c-.02002.20996-.03003.41998-.04004.64001-.01001.21997-.01996.43994-.02997.65997v-25.27002c0-.14996-.01001-.26001-.01001-.40997,0-.37.01001-.76001.02997-1.13.01001-.44.05005-.88.10004-1.29999.02997-.34003.07996-.70001.12-1.04004.04999-.38995.12-.77997.20001-1.15997.09998-.46002.19-.90002.31-1.33002.10999-.44.23999-.88.37-1.32001.19-.56.39001-1.13.62-1.67999.21997-.53998.45001-1.06.70996-1.56.08002-.15997.16003-.32001.24005-.46997.09998-.19.19995-.39001.31-.58002.02997-.04999.04999-.08002.07996-.12.10004-.16998.20001-.37.31-.54999.23004-.39001.47003-.76001.73004-1.13.04999-.08002.10999-.16003.17999-.23999v26.23999c-.28003.39996-.53998.81-.78003,1.20996ZM345.65997,437.96997c0-.5-.01996-1-.04999-1.48999,0-.04999-.01001-.09998-.01001-.15002-.01996-.25995-.03998-.51996-.06995-.76996,0-.02002-.01001-.04999-.01001-.07001-.02002-.16003-.03003-.32001-.06-.47998-.03003-.22003-.05005-.45001-.09003-.66003-.01001-.14996-.02997-.29999-.06-.45001-.02002-.12-.04999-.23999-.07001-.34998-.01001-.03003-.01001-.04999-.01001-.08002-.03998-.14001-.06-.28998-.08997-.42999-.04004-.16998-.07001-.33997-.10999-.51001-.10004-.40997-.20001-.79999-.31006-1.20001-.10999-.38995-.23999-.79999-.37-1.16998-.08997-.27997-.19-.54999-.29999-.82001-.04999-.10999-.08997-.21997-.14001-.32996-.00995-.02002-.01996-.05005-.02997-.07001-.01001-.02002-.02002-.05005-.03003-.07001-.03998-.10999-.07996-.21002-.13-.31-.00995-.02002-.01996-.04004-.01996-.06-.01001-.03003-.03003-.06-.04004-.09003-.03998-.08997-.07996-.19-.12-.27997-.14996-.34003-.31-.66003-.46997-.99005-.17999-.37-.38-.72998-.59003-1.06995-.04999-.06-.07996-.14001-.13-.21002,0-.01001-.00995-.02002-.01996-.03998,0-.03003-.02002-.06-.04004-.09003-.07996-.12-.14996-.25-.23999-.37-.16998-.28003-.35999-.56-.54999-.84003-.19-.27997-.38-.54999-.59003-.81995-.00995-.01001-.01996-.03003-.01996-.04004-.09003-.13-.19-.26001-.29004-.39001-.00995-.00995-.01996-.00995-.02997-.01996s-.02002-.02002-.02002-.03003c-.01001-.01001-.01996-.02997-.02997-.04999-.14001-.16998-.29004-.34998-.44-.52002-.17004-.20996-.34003-.40997-.52002-.60999-.34998-.39001-.71997-.77002-1.09998-1.14001-.37-.34998-.76001-.70996-1.15002-1.04999-.32001-.27997-.65002-.52997-.98999-.78998-.10004-.08002-.19-.15002-.28998-.23004-.05005-.02997-.10004-.06995-.15002-.10999-.22003-.16998-.44-.33002-.66998-.46997-.17004-.12-.35004-.23999-.52002-.36005-.40997-.25995-.83002-.5-1.25-.75v-26.25c.45001.24005.90997.51001,1.33002.79004.44995.28998.87.58002,1.28998.89001,0,.01996.02002.01996.03998.01996.61005.45001,1.20001.94,1.76001,1.46002.57001.51001,1.10999,1.02997,1.62,1.59998,0,.02002.02002.03003.04004.05005.33997.38995.67999.78998,1,1.19995.28998.37.57996.76001.85999,1.15002.07001.09998.13.19.21002.31.5.76001.98999,1.54999,1.40997,2.38.03003.07001.07001.10999.09998.17999.21002.44.42004.87.61005,1.33002.17999.39996.33997.81.50995,1.22998.16003.45001.30005.90997.43005,1.35999.06995.20001.13.41003.17999.62.09998.34003.17999.67999.25,1.02002.03998.14001.07996.31.10999.45001.08002.44.15997.88.21002,1.31.02997.16998.06.33002.06.48999.07001.37.09998.75.12,1.12.01001.08002.01001.16003.01001.22998.04999.53003.06995,1.07001.06995,1.60004v26.28998ZM440.64,805.23V64.86c.91-35.08-27.37-63.36-61.93-63.36h-113.74c-34.57,0-62.86,28.28-62.86,62.86v734.87c4.64,2.5,9.49,4.51,14.49,6,14.5,4.33,30.27,4.43,45.49,0,2.18-.63,4.36-1.36,6.51-2.19,8.51-3.24,15.97-8.13,22.35-14.67,13.26-13.48,21.97-33.9,26.04-61.04,3.34-22.37,3.59-48.9.73-80.49h-4.83c-55.08-5.14-58.49-96.56-58.49-96.56L215.45,61.72h212.78l-38.97,488.56s-3.24,87.58-55.04,96.11c2.9,32.48,2.57,59.97-.93,83.37-3.6,24.02-10.6,43.61-20.94,58.61-4.44,6.49-9.53,12.11-15.24,16.86"/>
              <path class="cls-2" d="M215.45001,61.71997l38.95001,488.56s3.40997,91.42004,58.48999,96.56h4.82996c-.31-3.39996-.64996-6.87-1.03998-10.38995-.83002-7.68005-1.83002-15.67004-3.02002-23.94-6.08997-42.74005-5.25-95.96002-3.47998-132.98004h-18.71002c-8.67999,0-15.79999-7.10999-15.79999-15.79999v-135.98999c0-8.69,7.12-15.81,15.79999-15.81h60.72003c8.69,0,15.81,7.12,15.81,15.81v135.98999c0,8.69-7.12,15.79999-15.81,15.79999h-25.45001c-1.72998,36.48999-2.64001,89.33002,3.25,130.66003,1.28003,8.95996,2.35004,17.58997,3.23999,25.89996.35004,3.48999.69,6.92004.98999,10.29999,51.80005-8.52997,55.04004-96.10999,55.04004-96.10999l38.96997-488.56h-212.77997ZM301.65002,208.5c-1.01001,1.01996-2.41003,1.64996-3.96002,1.64996-3.09003,0-5.62-2.52997-5.62-5.60999,0-1.53998.63-2.95001,1.64996-3.96997,1.02002-1.02002,2.42004-1.65002,3.97003-1.65002s2.95001.63,3.96002,1.65002c1.01996,1.01996,1.64996,2.42999,1.64996,3.96997s-.63,2.94-1.64996,3.96002ZM301.65002,194.32001c-1.01001,1.01996-2.41003,1.64996-3.96002,1.64996-3.09003,0-5.62-2.52997-5.62-5.62,0-1.54999.63-2.95001,1.64996-3.96002,1.02002-1.01996,2.42004-1.64996,3.97003-1.64996s2.95001.63,3.96002,1.64996c1.01996,1.01001,1.64996,2.41003,1.64996,3.96002s-.63,2.95001-1.64996,3.97003ZM301.65002,180.13996c-1.01001,1.02002-2.41003,1.65002-3.96002,1.65002-3.09003,0-5.62-2.52997-5.62-5.62,0-1.54999.63-2.95001,1.64996-3.96002,1.02002-1.01996,2.42004-1.64996,3.97003-1.64996s2.95001.63,3.96002,1.64996c1.01996,1.01001,1.64996,2.41003,1.64996,3.96002s-.63,2.95001-1.64996,3.96997ZM318.19,208.5c-1.02002,1.01996-2.41998,1.64996-3.96002,1.64996-3.08997,0-5.62-2.52997-5.62-5.60999,0-1.53998.63-2.95001,1.65002-3.96997,1.02002-1.02002,2.41998-1.65002,3.96997-1.65002,1.54004,0,2.94.63,3.96002,1.65002,1.02002,1.01996,1.65002,2.42999,1.65002,3.96997s-.63,2.94-1.65002,3.96002ZM318.19,194.32001c-1.02002,1.01996-2.41998,1.64996-3.96002,1.64996-3.08997,0-5.62-2.52997-5.62-5.62,0-1.54999.63-2.95001,1.65002-3.96002,1.02002-1.01996,2.41998-1.64996,3.96997-1.64996,1.54004,0,2.94.63,3.96002,1.64996,1.02002,1.01001,1.65002,2.41003,1.65002,3.96002s-.63,2.95001-1.65002,3.97003ZM318.19,180.13996c-1.02002,1.02002-2.41998,1.65002-3.96002,1.65002-3.08997,0-5.62-2.52997-5.62-5.62,0-1.54999.63-2.95001,1.65002-3.96002,1.02002-1.01996,2.41998-1.64996,3.96997-1.64996,1.54004,0,2.94.63,3.96002,1.64996,1.02002,1.01001,1.65002,2.41003,1.65002,3.96002s-.63,2.95001-1.65002,3.96997ZM334.72998,208.5c-1.01996,1.01996-2.42999,1.64996-3.96997,1.64996-3.08002,0-5.60999-2.52997-5.60999-5.60999,0-1.53998.63-2.95001,1.64996-3.96997,1.02002-1.02002,2.41998-1.65002,3.96002-1.65002s2.95001.63,3.96997,1.65002c1.02002,1.01996,1.65002,2.42999,1.65002,3.96997s-.63,2.94-1.65002,3.96002ZM334.72998,194.32001c-1.01996,1.01996-2.42999,1.64996-3.96997,1.64996-3.08002,0-5.60999-2.52997-5.60999-5.62,0-1.54999.63-2.95001,1.64996-3.96002,1.02002-1.01996,2.41998-1.64996,3.96002-1.64996s2.95001.63,3.96997,1.64996c1.02002,1.01001,1.65002,2.41003,1.65002,3.96002s-.63,2.95001-1.65002,3.97003ZM334.72998,180.13996c-1.01996,1.02002-2.42999,1.65002-3.96997,1.65002-3.08002,0-5.60999-2.52997-5.60999-5.62,0-1.54999.63-2.95001,1.64996-3.96002,1.02002-1.01996,2.41998-1.64996,3.96002-1.64996s2.95001.63,3.96997,1.64996c1.02002,1.01001,1.65002,2.41003,1.65002,3.96002s-.63,2.95001-1.65002,3.96997ZM351.27002,208.5c-1.02002,1.01996-2.42999,1.64996-3.97003,1.64996-3.08997,0-5.60999-2.52997-5.60999-5.60999,0-1.53998.63-2.95001,1.65002-3.96997,1.00995-1.02002,2.41998-1.65002,3.95996-1.65002s2.95001.63,3.97003,1.65002c1.01996,1.01996,1.64996,2.42999,1.64996,3.96997s-.63,2.94-1.64996,3.96002ZM351.27002,194.32001c-1.02002,1.01996-2.42999,1.64996-3.97003,1.64996-3.08997,0-5.60999-2.52997-5.60999-5.62,0-1.54999.63-2.95001,1.65002-3.96002,1.00995-1.01996,2.41998-1.64996,3.95996-1.64996s2.95001.63,3.97003,1.64996c1.01996,1.01001,1.64996,2.41003,1.64996,3.96002s-.63,2.95001-1.64996,3.97003ZM351.27002,180.13996c-1.02002,1.02002-2.42999,1.65002-3.97003,1.65002-3.08997,0-5.60999-2.52997-5.60999-5.62,0-1.54999.63-2.95001,1.65002-3.96002,1.00995-1.01996,2.41998-1.64996,3.95996-1.64996s2.95001.63,3.97003,1.64996c1.01996,1.01001,1.64996,2.41003,1.64996,3.96002s-.63,2.95001-1.64996,3.96997ZM390.87,163.93h-138.07001c-3.83002,0-6.95001-3.13-6.95001-6.94v-37.85004c0-3.81,3.12-6.92999,6.95001-6.92999h138.07001c3.82001,0,6.95001,3.12,6.95001,6.92999v37.85004c0,3.81-3.13,6.94-6.95001,6.94Z"/>
              <path class="cls-2" d="M290.95001,788.37c-6.38,6.53998-13.84003,11.42999-22.35004,14.66998-2.14996.83002-4.32996,1.56-6.50995,2.19-15.22003,4.42999-30.99005,4.33002-45.49005,0-5-1.48999-9.84998-3.5-14.48999-6v-10.85999h88.84003Z"/>
              <line class="cls-2" x1="440.64" y1="788.37" x2="312.35" y2="788.37"/>
              <g>
                <path class="cls-2" d="M298.09003,435.98999c0-.07001.00995-.13.01996-.19-.01001.08997-.01996.16998-.01996.26001v-.07001Z"/>
                <path class="cls-2" d="M299.16998,430.58997c-.04999.16003-.09998.33002-.14996.48999.01001-.02997.01001-.06.01996-.08997.04004-.13.08002-.26001.13-.40002Z"/>
                <path class="cls-2" d="M340.52002,423.16999c.01001.02002.01996.03998.02997.04999-.14996-.19-.31-.38-.46997-.57001.14996.17004.29999.35004.44.52002Z"/>
                <path class="cls-2" d="M340.59998,423.26996c.10004.13.20001.26001.29004.39001-.10999-.14001-.21002-.27997-.32001-.40997.01001.01001.02002.01001.02997.01996Z"/>
                <path class="cls-2" d="M342.28998,425.72998c.02002.03003.04004.06.04004.09003-.09003-.16003-.17999-.31-.28003-.46002.09003.12.16003.25.23999.37Z"/>
                <path class="cls-2" d="M333.44,390.88996v26.25c-3.44-1.90997-7.39001-3-11.59003-3-8.10999,0-15.23999,4.02002-19.52997,10.17004v-26.23999c4.27997-6.18005,11.40997-10.22003,19.52997-10.22003,4.20001,0,8.15002,1.09003,11.59003,3.03998Z"/>
                <path class="cls-2" d="M298.01001,412.60999c0-.15002,0-.31.01001-.46002v.89001c0-.14001-.01001-.28998-.01001-.42999Z"/>
                <path class="cls-2" d="M298.09003,435.98999c0-.07001.00995-.13.01996-.19-.01001.08997-.01996.16998-.01996.26001v-.07001Z"/>
                <path class="cls-2" d="M299.16998,430.58997c-.04999.16003-.09998.33002-.14996.48999.01001-.02997.01001-.06.01996-.08997.04004-.13.08002-.26001.13-.40002Z"/>
                <path class="cls-2" d="M340.52002,423.16999c.01001.02002.01996.03998.02997.04999-.14996-.19-.31-.38-.46997-.57001.14996.17004.29999.35004.44.52002Z"/>
                <path class="cls-2" d="M340.59998,423.26996c.10004.13.20001.26001.29004.39001-.10999-.14001-.21002-.27997-.32001-.40997.01001.01001.02002.01001.02997.01996Z"/>
                <path class="cls-2" d="M342.28998,425.72998c.02002.03003.04004.06.04004.09003-.09003-.16003-.17999-.31-.28003-.46002.09003.12.16003.25.23999.37Z"/>
                <path class="cls-5" d="M302.32001,398.07001v26.23999c-.28003.39001-.53998.79999-.78003,1.20996-.09998.17004-.19995.31-.27997.47003-.31.52002-.60004,1.06-.85999,1.59998-.08002.14001-.14001.29004-.21002.42999-.02002.03003-.03003.07001-.03998.10004-.04004.07001-.08002.14996-.10004.21997-.16998.36005-.32001.72003-.45996,1.09003-.01001.01001-.01001.02997-.02002.04999-.02002.04999-.03998.09998-.04999.15002-.01001.00995-.02002.01996-.02002.02997-.04999.12-.09998.23999-.13.37-.02997.06-.04999.10999-.06.17004v.00995l-.01001.01001c-.04999.13-.08997.25-.13.37-.04999.14001-.08997.27002-.13.40002-.00995.02997-.00995.06-.01996.08997,0,.01001-.01001.03003-.01001.05005-.01001.01996-.01001.03998-.02002.06-.01001.03998-.02002.07996-.03998.12-.09003.28998-.16998.58997-.23999.89001-.01001.03998-.02002.07996-.03003.12-.01001.03998-.02002.08997-.02997.13-.01001.06-.03003.10999-.04004.16998-.01996.09998-.04999.20996-.07001.31-.03998.19-.07996.39001-.12.58997-.01996.10004-.03998.21002-.04999.31-.06.33002-.10999.66003-.15002.99005-.00995.06995-.01996.13995-.02997.20996-.02002.17999-.03998.35004-.04999.53003-.01001.07996-.02002.15997-.03003.23999-.01001.06-.01996.12-.01996.19v.07001c-.02002.20996-.03003.41998-.04004.64001-.01001.21997-.01996.43994-.02997.65997v-25.27002c0-.14996-.01001-.26001-.01001-.40997,0-.37.01001-.76001.02997-1.13.01001-.44.05005-.88.10004-1.29999.02997-.34003.07996-.70001.12-1.04004.04999-.38995.12-.77997.20001-1.15997.09998-.46002.19-.90002.31-1.33002.10999-.44.23999-.88.37-1.32001.19-.56.39001-1.13.62-1.67999.21997-.53998.45001-1.06.70996-1.56.08002-.15997.16003-.32001.24005-.46997.09998-.19.19995-.39001.31-.58002.02997-.04999.04999-.08002.07996-.12.10004-.16998.20001-.37.31-.54999.23004-.39001.47003-.76001.73004-1.13.04999-.08002.10999-.16003.17999-.23999Z"/>
                <path class="cls-3" d="M298.09003,435.98999c0-.07001.00995-.13.01996-.19-.01001.08997-.01996.16998-.01996.26001v-.07001Z"/>
                <path class="cls-3" d="M299.03998,430.98999c.04004-.13.08002-.26001.13-.40002-.04999.16003-.09998.33002-.14996.48999.01001-.02997.01001-.06.01996-.08997Z"/>
                <path class="cls-3" d="M302.32001,398.02997v.04004c-.07001.07996-.13.15997-.17999.23999.04999-.10004.10999-.17999.17999-.28003Z"/>
                <path class="cls-5" d="M345.65997,411.68v26.28998c0-.5-.01996-1-.04999-1.48999,0-.04999-.01001-.09998-.01001-.15002-.10999-1.71997-.40997-3.38995-.88-5-.10999-.38995-.23999-.79999-.37-1.16998-.08997-.27997-.19-.54999-.29999-.82001-.15997-.40997-.33002-.81-.51001-1.20996-.14996-.34003-.31-.66003-.46997-.99005-.17999-.37-.38-.72998-.59003-1.06995-.04999-.06-.07996-.14001-.13-.21002,0-.01001-.00995-.02002-.01996-.03998,0-.03003-.02002-.06-.04004-.09003-.07996-.12-.14996-.25-.23999-.37-.16998-.28003-.35999-.56-.54999-.84003-.19-.27997-.38-.54999-.59003-.81995-.00995-.01001-.01996-.03003-.01996-.04004-.09003-.13-.19-.26001-.29004-.39001-.00995-.00995-.01996-.00995-.02997-.01996s-.02002-.02002-.02002-.03003c-.01001-.01001-.01996-.02997-.02997-.04999-.14001-.16998-.29004-.34998-.44-.52002-.17004-.20996-.34003-.40997-.52002-.60999-.34998-.39001-.71997-.77002-1.09998-1.14001-.37-.34998-.76001-.70996-1.15002-1.04999-.40997-.35999-.84003-.70001-1.27997-1.02002-.05005-.02997-.10004-.06995-.15002-.10999-.22003-.16998-.44-.33002-.66998-.46997-.17004-.12-.35004-.23999-.52002-.36005-.40997-.25995-.83002-.5-1.25-.75v-26.25c.45001.24005.90997.51001,1.33002.79004.44995.28998.87.58002,1.28998.89001,0,.01996.02002.01996.03998.01996.61005.45001,1.20001.94,1.76001,1.46002.57001.51001,1.10999,1.02997,1.62,1.59998,0,.02002.02002.03003.04004.05005.33997.38995.67999.78998,1,1.19995.28998.37.57996.76001.85999,1.15002.07001.09998.13.19.21002.31.5.76001.98999,1.54999,1.40997,2.38.03003.07001.07001.10999.09998.17999.21002.44.42004.87.61005,1.33002.17999.39996.33997.81.50995,1.22998.16003.45001.30005.90997.43005,1.35999.06995.20001.13.41003.17999.62.09998.34003.17999.67999.25,1.02002.03998.14001.07996.31.10999.45001.08002.44.15997.88.21002,1.31.02997.16998.06.33002.06.48999.07001.37.09998.75.12,1.12.01001.08002.01001.16003.01001.22998.04999.53003.06995,1.07001.06995,1.60004Z"/>
                <path class="cls-3" d="M340.52002,423.16999c.01001.02002.01996.03998.02997.04999-.14996-.19-.31-.38-.46997-.57001.14996.17004.29999.35004.44.52002Z"/>
                <path class="cls-3" d="M340.59998,423.26996c.10004.13.20001.26001.29004.39001-.10999-.14001-.21002-.27997-.32001-.40997.01001.01001.02002.01001.02997.01996Z"/>
                <path class="cls-3" d="M342.28998,425.72998c.02002.03003.04004.06.04004.09003-.09003-.16003-.17999-.31-.28003-.46002.09003.12.16003.25.23999.37Z"/>
                <path class="cls-2" d="M345.60999,436.47998c0-.04999-.01001-.09998-.01001-.15002-.01996-.25995-.03998-.51996-.06995-.76996,0-.02002-.01001-.04999-.01001-.07001-.02002-.16003-.03003-.32001-.06-.47998-.03003-.22003-.05005-.45001-.09003-.66003-.01001-.02997-.01001-.06-.02002-.08997-.00995-.12006-.01996-.24005-.03998-.36005s-.04999-.23999-.07001-.34998c-.01001-.03003-.01001-.04999-.01001-.08002-.03998-.14001-.06-.28998-.08997-.42999-.04004-.16998-.07001-.33997-.10999-.51001-.10004-.40997-.20001-.79999-.31006-1.20001-.10999-.38995-.23999-.79999-.37-1.16998-.08997-.27997-.19-.54999-.29999-.82001-.04999-.10999-.08997-.21997-.14001-.32996-.00995-.02002-.01996-.05005-.02997-.07001-.01001-.02002-.02002-.05005-.03003-.07001-.03998-.10999-.07996-.21002-.13-.31-.00995-.02002-.01996-.04004-.01996-.06-.01001-.03003-.03003-.06-.04004-.09003-.03998-.07001-.06995-.14996-.10999-.22998,0-.01001-.01001-.03003-.01001-.04999-.14996-.34003-.31-.66003-.46997-.99005-.17999-.37-.38-.72998-.59003-1.06995-.04999-.06-.07996-.14001-.13-.21002,0-.01001-.00995-.02002-.01996-.03998,0-.03003-.02002-.06-.04004-.09003-.07996-.12-.14996-.25-.23999-.37-.16998-.28003-.35999-.56-.54999-.84003-.19-.27997-.38-.54999-.59003-.81995-.00995-.01001-.01996-.03003-.01996-.04004-.09003-.13-.19-.26001-.29004-.39001-.00995-.00995-.01996-.00995-.02997-.01996s-.02002-.02002-.02002-.03003c-.01001-.01001-.01996-.02997-.02997-.04999-.14001-.16998-.29004-.34998-.44-.52002-.17004-.20996-.34003-.40997-.52002-.60999-.34998-.39001-.71997-.77002-1.09998-1.14001-.37-.34998-.76001-.70996-1.15002-1.04999-.32001-.27997-.65002-.52997-.98999-.78998-.10004-.08002-.19-.15002-.28998-.23004-.05005-.02997-.10004-.06995-.15002-.10999-.06-.03998-.10999-.07001-.16003-.09998-.16998-.13-.33997-.25-.50995-.37-.17004-.12-.35004-.23999-.52002-.36005-.40997-.25995-.83002-.5-1.25-.75-3.44-1.90997-7.39001-3-11.59003-3-8.10999,0-15.23999,4.02002-19.52997,10.17004-.28003.39996-.53998.81-.78003,1.20996-.09998.17004-.19995.31-.27997.47003-.04999.08002-.09003.16998-.13.25-.06.10999-.13.21002-.16998.32001-.01001.01996-.03003.03998-.04004.06-.07001.10999-.13995.22998-.19.33997l-.01001.01001c-.03998.07001-.06995.13-.09998.19-.08002.14001-.15002.28003-.21997.42999-.08002.14001-.14001.29004-.21002.42999v.02002c-.01001.03003-.03003.06-.03998.08002-.01001.02997-.02002.06-.04004.08997-.02997.05005-.04999.09003-.06.13-.02997.07001-.04999.12-.08002.17999-.06995.14001-.12994.30005-.18994.45001-.07001.15002-.13.31-.19.46002-.01001.01001-.01001.02997-.02002.04999-.01001.01001-.01001.03003-.01001.04999-.02002.03003-.02997.07001-.03998.10004-.01001.00995-.02002.01996-.02002.02997-.04999.12-.09998.23999-.13.37-.02002.04999-.03998.10999-.04999.16003l-.01001.01001v.00995l-.01001.01001c-.04999.13-.08997.25-.13.37-.04999.14001-.08997.27002-.13.40002-.00995.02997-.00995.06-.01996.08997,0,.01001-.01001.03003-.01001.05005-.01001.01996-.01001.03998-.02002.06-.01001.03998-.02002.07996-.03998.12-.02002.08997-.04999.19-.07001.27997-.06.20001-.12.40002-.16998.61005-.01001.03998-.02002.07996-.03003.12-.01001.03998-.02002.08997-.02997.13-.01001.06-.03003.10999-.04004.16998-.01996.09998-.04999.20996-.07001.31-.03998.19-.07996.39001-.12.58997-.01996.10004-.03998.21002-.04999.31-.02997.15002-.04999.30005-.07001.45001-.02997.17999-.06.35999-.08002.54004-.00995.06995-.01996.13995-.02997.20996-.02002.15002-.03003.29999-.03998.45001-.01001.01001-.01001.03998-.01001.08002-.01001.07996-.02002.15997-.03003.23999-.01001.06-.01996.12-.01996.19v.07001c-.02002.20996-.03003.41998-.04004.64001-.01001.21997-.01996.43994-.02997.65997-.01001.21002-.01001.40002-.01001.60999,0,9.41998,5.40997,17.52002,13.29999,21.40002.07001-1.09003.13-2.14001.20001-3.17999-1.69-1.02002-3.21002-2.28003-4.51001-3.73999-.19-.21002-.37-.43005-.57001-.65002-.39996-.48999-.77002-1.01001-1.13-1.53003-.14996-.19-.27997-.37-.39001-.57996-.07996-.11005-.14996-.23999-.22998-.36005-.13-.23999-.26001-.46997-.39001-.70996-.29999-.57001-.59998-1.15002-.83997-1.75-.21002-.47003-.40002-.97003-.57001-1.48999-.10999-.31-.21002-.63-.27002-.96002-.15997-.54999-.28998-1.12-.40997-1.70001-.04999-.31-.09003-.60999-.14001-.91998v-.03998c-.04999-.38-.09998-.77002-.12-1.18005-.03998-.47998-.06-.96997-.06-1.46997,0-.39001.02002-.77002.02997-1.14001.07001-1.03998.20001-2.03998.41003-3.02997,1.90997-9.01001,9.91998-15.77002,19.51001-15.77002,4.32996,0,8.34998,1.38,11.60999,3.72998,4.76001,3.39001,7.96002,8.85004,8.31,15.07001.02002.37.03998.75.03998,1.14001,0,.34003-.01996.67999-.03998,1.02002-.04999,1.03998-.17999,2.06-.37,3.02997-.06.32001-.15002.63-.22998.94-.08002.32001-.17004.66003-.27002.97003s-.20001.59998-.31.88995c-.10999.31-.22998.62-.35999.91003-.11005.31-.24005.59998-.40002.89001-.13.28998-.27997.58997-.44.85999-.13.22998-.26001.46997-.39001.70001-.83997,1.41998-1.85999,2.73999-3.04999,3.89996-.14001.15002-.28998.28003-.42999.42999-.84998.81-1.78998,1.54004-2.78998,2.17999-.16003.13-.36005.25-.54004.34003-.07996.07001-.15997.12-.26001.15002-.33997.20996-.69.40997-1.04999.57996-.39996.21002-.82996.41003-1.26001.60004-.06995.01996-.13.04999-.19995.07996-.47003.18005-.95001.36005-1.44.52002-.07001.96002-.13,1.95001-.20001,2.97003,10.29999-2.63,17.89996-11.95001,17.89996-23.10004,0-.5-.01996-1-.04999-1.48999Z"/>
              </g>
            </g>
            <path class="cls-2" d="M397.82001,119.13996v37.85004c0,3.81-3.13,6.94-6.95001,6.94h-138.07001c-3.83002,0-6.95001-3.13-6.95001-6.94v-37.85004c0-3.81,3.12-6.92999,6.95001-6.92999h138.07001c3.82001,0,6.95001,3.12,6.95001,6.92999Z"/>
          </g>
          <g>
            <path class="cls-2" d="M216.6,805.23c14.5,4.33,30.27,4.43,45.49,0"/>
            <path class="cls-2" d="M199.28998,816.26996h-14.70996v-8.53998c4.65997,3.29999,9.58997,6.15997,14.70996,8.53998Z"/>
            <path class="cls-4" d="M199.28998,816.26996h-14.70996v-8.53998c4.65997,3.29999,9.58997,6.15997,14.70996,8.53998Z"/>
            <path class="cls-4" d="M216.6,805.23c14.5,4.33,30.27,4.43,45.49,0"/>
          </g>
        </g>
        <path class="cls-2" d="M199.28998,816.26996h-13.52997c-.65002,0-1.17999-.51996-1.17999-1.16998v-7.37c4.65997,3.29999,9.58997,6.15997,14.70996,8.53998Z"/>
        <path class="cls-2" d="M216.6,805.23c14.5,4.33,30.27,4.43,45.49,0"/>
        <path class="cls-2" d="M459.09003,816.26996v25.74005c0,.51996-.42004.94-.94.94H185.52002c-.51001,0-.94-.42004-.94-.94v-25.74005h14.70996c12.45001,5.79004,26.07001,8.75,39.91003,8.75,11.79999,0,23.75-2.14996,35.28998-6.56,1.16003-.44995,2.31-.91998,3.44-1.40997.58002-.25,1.16003-.51001,1.72998-.78003h179.43005Z"/>
        <path class="cls-2" d="M459.09003,808.44v7.82996h-179.43005c.40002-.17999.79004-.35999,1.16003-.52997.12-.07001.22998-.12.33997-.17999,5.06-2.46002,9.77002-5.40002,14.13-8.84003,54.06-.5,108.12-1,162.19-1.48999.89001,0,1.61005,1.44,1.61005,3.21002Z"/>
        <line class="cls-2" x1="457.48" y1="805.23" x2="440.64" y2="805.23"/>
        <path class="cls-2" d="M297.11,805.23c-.6.51-1.21,1-1.82,1.49"/>
        <path class="cls-2" d="M199.28998,816.26996h-14.70996v-8.53998c4.65997,3.29999,9.58997,6.15997,14.70996,8.53998Z"/>
        <path class="cls-2" d="M333.28998,729.76001c-3.59998,24.01996-10.59998,43.60999-20.94,58.60999-4.44,6.48999-9.52997,12.10999-15.23999,16.85999-.59998.51001-1.20996,1-1.82001,1.48999-4.35999,3.44-9.07001,6.38-14.13,8.84003-.10999.06-.21997.10999-.33997.17999-.37.16998-.76001.34998-1.16003.52997h28.71002c-10.31.38-20.52997.66003-30.44.78003-1.13.48999-2.27997.96002-3.44,1.40997-11.53998,4.41003-23.48999,6.56-35.28998,6.56-13.84003,0-27.46002-2.95996-39.91003-8.75-5.12-2.38-10.04999-5.23999-14.70996-8.53998.20001,0-1.95001-1.42999-2.96002-2.21002-2.47998-1.91998-4.76001-3.94-4.76001-3.94-16.77997-14.85999-28.53998-36.00995-34.01001-61.17999-6.06995-28-4.57996-60.62,4.43005-96.97998,11.31-45.63,21.56-82.71002,30.59998-115.44,5.07001-18.38,9.72998-35.35999,13.75-50.96002.13-.51996.27002-1.03998.40002-1.56.50995-2,1.01996-3.98999,1.50995-5.94995.25-.98004.49005-1.95001.73004-2.92004.23999-.96997.47998-1.92999.70996-2.88.23999-.95996.47003-1.90997.70001-2.84998.91998-3.78003,1.78998-7.47998,2.60999-11.07001.20001-.90002.40002-1.78998.60004-2.67999.38-1.65997.73999-3.29999,1.07996-4.91998.15002-.69.30005-1.37.44-2.05005.61005-2.85999,1.17004-5.65997,1.70001-8.38995v69.98999c-.94,3.46997-1.95001,7.20001-2.98999,11.03998-.69,2.57001-1.40002,5.19-2.12,7.82001-.53003,1.97998-1.07001,3.96002-1.60999,5.91998-.54004,1.97003-1.08002,3.93005-1.60999,5.85004-4.07001,14.73999-8.38,30.37-12.93005,47.26001-1.06995,3.97998-2.15997,8.01996-3.25,12.13995-.03998.17004-.08997.34003-.13995.51001-.32001,1.21002-.64001,2.42999-.97003,3.66003-.16998.67999-.35999,1.37-.53998,2.06-.47003,1.77997-.94,3.57001-1.41998,5.38-.08002.32001-.16003.64996-.25.96997-1.12006,4.27002-2.26001,8.62-3.40002,13.06-.78998,3.06-1.59003,6.15002-2.39001,9.29004-.07001.26996-.13.53998-.20996.81v.02997c-1.64001,6.42999-3.30005,13.04999-4.99005,19.84998-8.40997,33.88-9.87,63.99005-4.32001,89.51001,4.71002,21.72003,14.68005,39.82001,28.83002,52.33002,4.42999,3.92999,9.23999,7.27002,14.31,10,4.64001,2.5,9.48999,4.51001,14.48999,6,2.97003.89001,5.99005,1.59998,9.05005,2.12,9.56-.08002,19.10999-.16998,28.66998-.26001,2.59998-.48999,5.19-1.10999,7.77002-1.85999,2.17999-.63,4.35999-1.35999,6.50995-2.19,8.51001-3.23999,15.97003-8.13,22.35004-14.66998,13.26001-13.48004,21.96997-33.90002,26.03998-61.04004,3.34003-22.37,3.59003-48.89996.72998-80.48999-.31-3.39996-.64996-6.87-1.03998-10.38995-.83002-7.68005-1.83002-15.67004-3.02002-23.94-6.08997-42.74005-5.25-95.96002-3.47998-132.98004.01001-.54999.04999-1.09998.08002-1.64996.32001-6.81.70001-13.03003,1.04999-18.51001.07001-1.09003.13-2.14001.20001-3.17999.08002-1.09003.15997-2.14001.21997-3.16003.73004-10.48999,1.35004-17.12,1.45001-18.14001.41998-4.53998,4.45001-7.83997,8.97998-7.43994,4.54004.41998,7.86005,4.43994,7.44,8.97998-.03998.26001-.66998,7.26001-1.44995,18.66998-.06.97998-.13,1.97003-.19,3-.07001.96002-.13,1.95001-.20001,2.97003-.32001,5.01996-.64001,10.67999-.94,16.81-.03003.54999-.03998,1.09998-.08002,1.64996-1.72998,36.48999-2.64001,89.33002,3.25,130.66003,1.28003,8.95996,2.35004,17.58997,3.23999,25.89996.35004,3.48999.69,6.92004.98999,10.29999,2.90002,32.48004,2.57001,59.97003-.92999,83.37006Z"/>
      </g>
      <path class="cls-5" d="M302.32523,397.78144v26.23999c-.28003.39001-.53998.79999-.78003,1.20996-.09998.17004-.19995.31-.27997.47003-.31.52002-.60004,1.06-.85999,1.59998-.08002.14001-.14001.29004-.21002.42999-.02002.03003-.03003.07001-.03998.10004-.04004.07001-.08002.14996-.10004.21997-.16998.36005-.32001.72003-.45996,1.09003-.01001.01001-.01001.02997-.02002.04999-.02002.04999-.03998.09998-.04999.15002-.01001.00995-.02002.01996-.02002.02997-.04999.12-.09998.23999-.13.37-.02997.06-.04999.10999-.06.17004v.00995l-.01001.01001c-.04999.13-.08997.25-.13.37-.04999.14001-.08997.27002-.13.40002-.00995.02997-.00995.06-.01996.08997,0,.01001-.01001.03003-.01001.05005-.01001.01996-.01001.03998-.02002.06-.01001.03998-.02002.07996-.03998.12-.09003.28998-.16998.58997-.23999.89001-.01001.03998-.02002.07996-.03003.12-.01001.03998-.02002.08997-.02997.13-.01001.06-.03003.10999-.04004.16998-.01996.09998-.04999.20996-.07001.31-.03998.19-.07996.39001-.12.58997-.01996.10004-.03998.21002-.04999.31-.06.33002-.10999.66003-.15002.99005-.00995.06995-.01996.13995-.02997.20996-.02002.17999-.03998.35004-.04999.53003-.01001.07996-.02002.15997-.03003.23999-.01001.06-.01996.12-.01996.19v.07001c-.02002.20996-.03003.41998-.04004.64001-.01001.21997-.01996.43994-.02997.65997v-25.27002c0-.14996-.01001-.26001-.01001-.40997,0-.37.01001-.76001.02997-1.13.01001-.44.05005-.88.10004-1.29999.02997-.34003.07996-.70001.12-1.04004.04999-.38995.12-.77997.20001-1.15997.09998-.46002.19-.90002.31-1.33002.10999-.44.23999-.88.37-1.32001.19-.56.39001-1.13.62-1.67999.21997-.53998.45001-1.06.70996-1.56.08002-.15997.16003-.32001.24005-.46997.09998-.19.19995-.39001.31-.58002.02997-.04999.04999-.08002.07996-.12.10004-.16998.20001-.37.31-.54999.23004-.39001.47003-.76001.73004-1.13.04999-.08002.10999-.16003.17999-.23999Z"/>
      <path class="cls-3" d="M345.66476,411.39255v26.2908c0-4.42508-1.19954-8.57454-3.30667-12.12428-2.1558-3.63077-5.23542-6.64559-8.91486-8.70414v-26.25835c.4539.24317.90769.51869,1.32914.79432.4539.29175.87524.58349,1.29669.89147,0,.01622.01622.01622.03245.01622.61594.4538,1.19944.94004,1.76681,1.45874.56727.51869,1.10219,1.03739,1.62088,1.60466,0,.01622.01613.03245.03235.04867.34042.389.68074.79422,1.00494,1.19944.29175.37277.58359.76187.85912,1.15086.0648.09725.1297.1945.21072.30797.50247.76177.98872,1.55599,1.41016,2.38265.03235.0649.0648.11347.09725.17827.21072.43767.42145.87534.61594,1.32914.17827.40522.34032.81044.50247,1.23189.16205.4539.30797.90769.43757,1.36159.0649.1945.1297.40522.17837.61594.09725.34032.17827.68074.24307,1.02117.04867.14582.08112.30797.11347.4538.08102.43767.16215.87524.21072,1.31291.03245.16215.0648.3242.0648.48625.0649.37287.09735.74564.11347,1.11841.01622.08102.01622.16215.01622.22695.04867.53492.0649,1.06974.0649,1.60466Z"/>
      <polyline class="cls-6" points="326.2797 332.68611 320.24954 347.77522 325.68564 347.77522 316.49166 366.54088"/>
    </g>
  </g>
</svg>