<?xml version="1.0" encoding="UTF-8"?>
<svg xmlns="http://www.w3.org/2000/svg" viewBox="0 0 595.27557 841.88983">
  <defs>
    <style>
      .cls-1 {
        stroke-linecap: round;
      }

      .cls-1, .cls-2, .cls-3, .cls-4, .cls-5 {
        stroke: #95c11f;
        stroke-miterlimit: 10;
      }

      .cls-1, .cls-3 {
        fill: none;
      }

      .cls-1, .cls-3, .cls-5 {
        stroke-width: 2px;
      }

      .cls-2, .cls-6, .cls-5 {
        fill: #3c3c3b;
      }

      .cls-6, .cls-7 {
        stroke-width: 0px;
      }

      .cls-4 {
        fill: #878787;
        opacity: .45;
      }

      .cls-7 {
        fill: #95c11f;
      }
    </style>
  </defs>
  <g id="Capa_2" data-name="Capa 2">
    <rect class="cls-6" width="595.27557" height="841.88983"/>
  </g>
  <g id="Capa_1" data-name="Capa 1">
    <g>
      <g>
        <g>
          <g>
            <path class="cls-3" d="M439.286,815.42539V63.43388c.91793-35.12104-27.39491-63.43388-61.99945-63.43388h-113.85591c-34.60454,0-62.91738,28.31284-62.91738,62.91782v751.99107l238.77274.5165Z"/>
            <rect class="cls-3" x="200.51326" y="787.69442" width="239.69067" height="27.2149"/>
            <path class="cls-3" d="M213.86071,60.28345l38.99543,489.07321s3.40366,91.51441,58.54872,96.64888h17.90703c55.14593-5.13448,58.54872-96.64888,58.54872-96.64888l38.9963-489.07321h-212.99619Z"/>
            <path class="cls-3" d="M217.95478,64.32348l37.49649,477.02594s3.27247,89.26012,56.29792,94.26819h17.2188c53.02589-5.00808,56.29792-94.26819,56.29792-94.26819l37.49693-477.02594h-204.80806Z"/>
            <rect class="cls-3" x="274.1494" y="310.75217" width="92.41839" height="167.77924" rx="9.7516" ry="9.7516"/>
            <rect class="cls-3" x="276.33656" y="317.03122" width="88.04362" height="159.8365" rx="9.29" ry="9.29"/>
            <g>
              <g>
                <g>
                  <path class="cls-7" d="M349.24264,404.4764c0,15.97397-12.93557,28.89341-28.87467,28.89341-15.97397,0-28.89341-12.91944-28.89341-28.89341,0-15.95567,12.91944-28.87424,28.89341-28.87424,15.9391,0,28.87467,12.91857,28.87467,28.87424Z"/>
                  <path class="cls-7" d="M345.2802,404.4764c0,13.79204-11.13806,24.93926-24.91223,24.93926-13.79204,0-24.9471-11.14722-24.9471-24.93926,0-13.76502,11.15506-24.92008,24.9471-24.92008,13.77417,0,24.91223,11.15506,24.91223,24.92008Z"/>
                  <path class="cls-7" d="M342.03301,404.86084c0,11.94093-9.70625,21.66505-21.66505,21.66505h0c-11.99367,0-21.70079-9.72412-21.70079-21.66505h0c0-11.99367,9.70712-21.71779,21.70079-21.71779h0c11.9588,0,21.66505,9.72412,21.66505,21.71779h0Z"/>
                  <path class="cls-7" d="M339.79834,404.84384c0,10.71876-8.71161,19.44737-19.43037,19.44737h0c-10.75494,0-19.44824-8.72861-19.44824-19.44737h0c0-10.73663,8.6933-19.46611,19.44824-19.46611h0c10.71876,0,19.43037,8.72948,19.43037,19.46611h0Z"/>
                </g>
                <path class="cls-7" d="M314.01263,395.31978c.75099.93449.61152,2.29657-.33126,3.06412l-3.77153,3.02054c-.9419.75884-2.30398.61065-3.07197-.31469h0c-.75099-.96021-.61108-2.32141.33169-3.07197l3.78809-3.02054c.94277-.75971,2.30441-.61936,3.05497.32254h0Z"/>
                <path class="cls-7" d="M333.44388,401.17735c-.78543.89047-2.18281.96893-3.08984.13948l-3.56232-3.27334c-.87216-.84645-.9249-2.20852-.10417-3.09899h0c.80243-.87216,2.1815-.93406,3.07197-.12161l3.57888,3.28162c.87347.8203.92621,2.21768.10548,3.07284h0Z"/>
                <path class="cls-7" d="M315.44445,415.19648c.0523-1.19601,1.06482-2.14794,2.26998-2.11307l4.83547.14819c1.20473.02702,2.14707,1.0391,2.11176,2.24339h0c-.03487,1.19645-1.02951,2.13922-2.25124,2.1122l-4.83591-.12117c-1.18686-.07889-2.14794-1.04782-2.13007-2.26954h0Z"/>
                <polygon class="cls-7" points="321.69038 334.3555 331.47116 334.3555 323.32094 350.24928 327.8038 350.24928 316.14837 370.01527 321.87387 352.67486 315.37427 352.67486 321.69038 334.3555"/>
              </g>
              <g>
                <path class="cls-2" d="M320.36622,386.76421c-13.19403,0-23.86572,10.67082-23.86572,23.85047,0,.15604.02005.30685.0231.46158v25.85675h47.69309v-26.31833c0-13.17965-10.68477-23.85047-23.85047-23.85047Z"/>
                <path class="cls-2" d="M320.36622,388.50897c-13.19403,0-23.86572,10.2999-23.86572,23.02058,0,.15081.02005.29682.0231.44632v24.95713h47.69309v-25.40345c0-12.72069-10.68477-23.02058-23.85047-23.02058Z"/>
                <path class="cls-4" d="M300.81729,436.933v-39.98353c-2.71325,3.87134-4.3168,8.57649-4.3168,13.6652,0,.15604.02005.30685.0231.46158v25.85675h4.29369Z"/>
                <path class="cls-4" d="M331.9724,389.78736v47.14565h12.24429v-26.31833c0-8.96005-4.94531-16.75112-12.24429-20.82732Z"/>
                <path class="cls-2" d="M344.21669,436.933c0,13.19403-10.68477,23.86572-23.85047,23.86572-13.19403,0-23.86572-10.67169-23.86572-23.86572,0-13.17965,10.67169-23.85047,23.86572-23.85047,13.1657,0,23.85047,10.67082,23.85047,23.85047Z"/>
                <path class="cls-2" d="M344.21669,436.933c0,13.19403-10.68477,23.86572-23.85047,23.86572-13.19403,0-23.86572-10.67169-23.86572-23.86572,0-13.17965,10.67169-23.85047,23.86572-23.85047,13.1657,0,23.85047,10.67082,23.85047,23.85047Z"/>
                <path class="cls-2" d="M340.33053,438.06364c0,11.04523-8.9448,19.97825-19.96561,19.97825-11.04479,0-19.97825-8.93303-19.97825-19.97825,0-11.03259,8.93347-19.96518,19.97825-19.96518,11.02082,0,19.96561,8.93259,19.96561,19.96518Z"/>
                <path class="cls-2" d="M337.56715,438.06451c0,9.51709-7.70694,17.21444-17.20311,17.21444-9.51709,0-17.21401-7.69736-17.21401-17.21444,0-9.50619,7.69692-17.20311,17.21401-17.20311,9.49617,0,17.20311,7.69692,17.20311,17.20311Z"/>
              </g>
            </g>
          </g>
          <g>
            <rect class="cls-3" x="244.29621" y="110.81969" width="152.12476" height="51.77757" rx="4.2838" ry="4.2838"/>
            <rect class="cls-3" x="249.99688" y="114.70105" width="140.723" height="44.97461" rx="3.8399" ry="3.8399"/>
          </g>
        </g>
        <rect class="cls-3" x="182.96494" y="804.56584" width="274.78686" height="37.76891" rx=".5796" ry=".5796"/>
      </g>
      <rect class="cls-1" x="182.96494" y="804.56584" width="274.78686" height="11.05874" rx=".72572" ry=".72572"/>
      <path class="cls-5" d="M328.52167,609.32456c-9.96821-69.99755-.49035-172.90762-.39359-173.93931.42627-4.53821-2.90721-8.56254-7.44543-8.99013-4.5356-.40666-8.56254,2.90721-8.98969,7.44543-.40361,4.28759-9.7603,105.8613.48642,177.81065,6.72974,47.25984,7.81635,84.85528,3.32215,114.93598-6.02495,40.32263-22.31884,65.82503-48.42796,75.79803-28.12324,10.73881-59.11883,5.44481-80.89197-13.82734-14.1586-12.53196-24.1377-30.64864-28.85811-52.39083-5.54506-25.5377-4.09015-55.68422,4.32421-89.60401,11.27667-45.46234,21.50073-82.47895,30.52049-115.1391,2.83922-10.27898,5.8336-21.41791,8.34505-30.66825v-70.06075c-5.07389,26.26167-13.75717,58.31858-24.25669,96.33506-9.04766,32.75647-19.30136,69.88597-30.63077,115.55927-9.02718,36.39158-10.51914,69.05303-4.43448,97.07995,5.47096,25.19598,17.24495,46.37548,34.04968,61.25064,17.3962,15.39645,39.58908,23.45514,62.40437,23.45514,11.79927,0,23.76809-2.15753,35.31892-6.5689,32.08786-12.25823,51.8922-42.12711,58.86297-88.78067,4.73348-31.68207,3.65254-70.83703-3.30559-119.70085Z"/>
    </g>
  </g>
</svg>